<mxfile host="app.diagrams.net" modified="2023-05-17T10:52:42.437Z" agent="Mozilla/5.0 (Windows NT 10.0; Win64; x64) AppleWebKit/537.36 (KHTML, like Gecko) Chrome/113.0.0.0 Safari/537.36" etag="0FjC9UpsZYMRDtRZoGq3" version="21.2.9" type="device">
  <diagram name="Seite-1" id="fxXAz6jIt37XFiVIwRes">
    <mxGraphModel dx="1358" dy="822" grid="1" gridSize="10" guides="1" tooltips="1" connect="1" arrows="1" fold="1" page="1" pageScale="1" pageWidth="1169" pageHeight="1654" math="0" shadow="0">
      <root>
        <mxCell id="0" />
        <mxCell id="1" parent="0" />
        <mxCell id="YtDWIlJR_gNdjlSiPyXk-1" value="Describe usecase" style="rounded=0;whiteSpace=wrap;html=1;fillColor=#002C82;fontColor=#FFFFFF;fontStyle=1" parent="1" vertex="1">
          <mxGeometry x="40" y="80" width="140" height="60" as="geometry" />
        </mxCell>
        <mxCell id="YtDWIlJR_gNdjlSiPyXk-2" value="look into/analyze the source data" style="rounded=0;whiteSpace=wrap;html=1;fillColor=#002C82;fontColor=#FFFFFF;fontStyle=1" parent="1" vertex="1">
          <mxGeometry x="340" y="80" width="190" height="60" as="geometry" />
        </mxCell>
        <mxCell id="YtDWIlJR_gNdjlSiPyXk-3" value="model the data vault and describe the mapping from source to model" style="rounded=0;whiteSpace=wrap;html=1;fillColor=#002C82;fontColor=#FFFFFF;fontStyle=1" parent="1" vertex="1">
          <mxGeometry x="540" y="80" width="180" height="60" as="geometry" />
        </mxCell>
        <mxCell id="YtDWIlJR_gNdjlSiPyXk-4" value="implement pipeline process and data model" style="rounded=0;whiteSpace=wrap;html=1;fillColor=#002C82;fontColor=#FFFFFF;fontStyle=1" parent="1" vertex="1">
          <mxGeometry x="890" y="80" width="170" height="60" as="geometry" />
        </mxCell>
        <mxCell id="YtDWIlJR_gNdjlSiPyXk-5" value="execute the pipeline process" style="rounded=0;whiteSpace=wrap;html=1;fillColor=#002C82;fontColor=#FFFFFF;fontStyle=1" parent="1" vertex="1">
          <mxGeometry x="1210" y="80" width="180" height="60" as="geometry" />
        </mxCell>
        <mxCell id="YtDWIlJR_gNdjlSiPyXk-7" value="deploy&amp;nbsp; pipeline process and data model" style="rounded=0;whiteSpace=wrap;html=1;fillColor=#002C82;fontColor=#FFFFFF;fontStyle=1" parent="1" vertex="1">
          <mxGeometry x="1070" y="80" width="130" height="60" as="geometry" />
        </mxCell>
        <mxCell id="YtDWIlJR_gNdjlSiPyXk-9" value="Specification of&amp;nbsp;transformation&amp;nbsp;" style="html=1;shadow=0;dashed=0;align=center;verticalAlign=middle;shape=mxgraph.arrows2.arrow;dy=0;dx=22;notch=0;strokeWidth=3;fillColor=#F38920;strokeColor=#FFFFFF;fontColor=#FFFFFF;" parent="1" vertex="1">
          <mxGeometry x="40" y="380" width="840" height="40" as="geometry" />
        </mxCell>
        <mxCell id="YtDWIlJR_gNdjlSiPyXk-11" value="Data model &amp;amp; &lt;br&gt;field mapping to model&lt;br&gt;&lt;br&gt;&lt;br&gt;&lt;br&gt;&lt;br&gt;deletion detection method" style="shadow=0;dashed=0;align=center;verticalAlign=bottom;shape=mxgraph.arrows2.arrow;dy=0;dx=22;notch=0;strokeWidth=3;fillColor=#F3AC0C;strokeColor=#FFFFFF;fontColor=#FFFFFF;whiteSpace=wrap;html=1;" parent="1" vertex="1">
          <mxGeometry x="540" y="210" width="340" height="110" as="geometry" />
        </mxCell>
        <mxCell id="YtDWIlJR_gNdjlSiPyXk-10" value="Source fields &amp;amp; Parsing rules" style="html=1;shadow=0;dashed=0;align=center;verticalAlign=middle;shape=mxgraph.arrows2.arrow;dy=0;dx=22;notch=0;strokeWidth=3;fillColor=#F3AC0C;strokeColor=#FFFFFF;fontColor=#FFFFFF;" parent="1" vertex="1">
          <mxGeometry x="340" y="245" width="540" height="40" as="geometry" />
        </mxCell>
        <mxCell id="YtDWIlJR_gNdjlSiPyXk-12" value="determine increment procedure" style="rounded=0;whiteSpace=wrap;html=1;fillColor=#002C82;fontColor=#FFFFFF;fontStyle=1" parent="1" vertex="1">
          <mxGeometry x="730" y="80" width="150" height="60" as="geometry" />
        </mxCell>
        <mxCell id="YtDWIlJR_gNdjlSiPyXk-14" value="Code to manage increments" style="rounded=1;whiteSpace=wrap;html=1;fillColor=#ffe6cc;strokeColor=#d79b00;" parent="1" vertex="1">
          <mxGeometry x="890" y="160" width="170" height="40" as="geometry" />
        </mxCell>
        <mxCell id="YtDWIlJR_gNdjlSiPyXk-15" value="determine data transport technology and format" style="rounded=0;whiteSpace=wrap;html=1;fillColor=#002C82;fontColor=#FFFFFF;fontStyle=1" parent="1" vertex="1">
          <mxGeometry x="190" y="80" width="140" height="60" as="geometry" />
        </mxCell>
        <mxCell id="YtDWIlJR_gNdjlSiPyXk-16" value="Code to stage and load data" style="rounded=1;whiteSpace=wrap;html=1;fillColor=#ffe6cc;strokeColor=#d79b00;arcSize=10;" parent="1" vertex="1">
          <mxGeometry x="890" y="250" width="170" height="70" as="geometry" />
        </mxCell>
        <mxCell id="YtDWIlJR_gNdjlSiPyXk-17" value="Parameters about transport and format" style="html=1;shadow=0;dashed=0;align=center;verticalAlign=middle;shape=mxgraph.arrows2.arrow;dy=0;dx=22;notch=0;strokeWidth=3;fillColor=#F3AC0C;strokeColor=#FFFFFF;fontColor=#FFFFFF;" parent="1" vertex="1">
          <mxGeometry x="190" y="330" width="690" height="40" as="geometry" />
        </mxCell>
        <mxCell id="YtDWIlJR_gNdjlSiPyXk-18" value="Code for business transformation" style="rounded=1;whiteSpace=wrap;html=1;fillColor=#ffe6cc;strokeColor=#d79b00;" parent="1" vertex="1">
          <mxGeometry x="890" y="377.5" width="170" height="45" as="geometry" />
        </mxCell>
        <mxCell id="YtDWIlJR_gNdjlSiPyXk-19" value="Parameters about&lt;br&gt;increment procedure" style="html=1;shadow=0;dashed=0;align=center;verticalAlign=middle;shape=mxgraph.arrows2.arrow;dy=0;dx=22;notch=0;strokeWidth=3;fillColor=#F3AC0C;strokeColor=#FFFFFF;fontColor=#FFFFFF;" parent="1" vertex="1">
          <mxGeometry x="730" y="160" width="150" height="40" as="geometry" />
        </mxCell>
        <mxCell id="YtDWIlJR_gNdjlSiPyXk-20" value="process specific executable artifact(s)" style="rounded=1;whiteSpace=wrap;html=1;fillColor=#ffe6cc;strokeColor=#d79b00;arcSize=6;" parent="1" vertex="1">
          <mxGeometry x="1070" y="160" width="330" height="260" as="geometry" />
        </mxCell>
        <mxCell id="YtDWIlJR_gNdjlSiPyXk-21" value="schedule" style="rounded=1;whiteSpace=wrap;html=1;fillColor=#ffe6cc;strokeColor=#d79b00;" parent="1" vertex="1">
          <mxGeometry x="1220" y="430" width="180" height="40" as="geometry" />
        </mxCell>
        <mxCell id="Es7MSzA5GDHhnmgjiM3s-1" value="Code to deploy database objects" style="rounded=1;whiteSpace=wrap;html=1;fillColor=#ffe6cc;strokeColor=#d79b00;" vertex="1" parent="1">
          <mxGeometry x="890" y="210" width="170" height="40" as="geometry" />
        </mxCell>
        <mxCell id="Es7MSzA5GDHhnmgjiM3s-2" value="Ilist of data sources" style="html=1;shadow=0;dashed=0;align=center;verticalAlign=middle;shape=mxgraph.arrows2.arrow;dy=0;dx=22;notch=0;strokeWidth=3;fillColor=#F38920;strokeColor=#FFFFFF;fontColor=#FFFFFF;" vertex="1" parent="1">
          <mxGeometry x="40" y="245" width="300" height="40" as="geometry" />
        </mxCell>
        <mxCell id="Es7MSzA5GDHhnmgjiM3s-3" value="Code to fetch and parse data" style="rounded=1;whiteSpace=wrap;html=1;fillColor=#ffe6cc;strokeColor=#d79b00;" vertex="1" parent="1">
          <mxGeometry x="890" y="330" width="170" height="40" as="geometry" />
        </mxCell>
      </root>
    </mxGraphModel>
  </diagram>
</mxfile>
